ply
format ascii 1.0
element vertex 217
property float x
property float y
property float z
end_header
1.885991 -0.044894 -0.037736
1.838515 0.314016 -0.074645
2.031045 0.007630 -0.040627
1.901932 0.373438 -0.135899
1.319599 -0.346825 -0.000000
1.923126 0.417669 -0.118219
1.874389 -0.180198 -0.037666
1.830908 0.178380 -0.055204
1.729051 -0.482421 -0.017951
1.841037 -0.352221 -0.056250
1.652453 0.224495 -0.066741
1.972132 0.635849 -0.103692
1.897070 0.319471 -0.096269
2.107823 0.055921 -0.063276
1.273587 -0.382213 -0.000000
1.911631 0.525819 -0.019827
1.859571 0.037992 -0.074438
1.779220 -0.417955 -0.054846
1.978217 0.397423 -0.161765
2.036473 -0.050099 -0.061131
1.738748 -0.421510 -0.071603
2.084314 0.318671 -0.169044
2.107842 0.300590 -0.213629
1.860729 0.346169 -0.113696
1.583389 -0.671330 -0.017199
1.754356 0.637863 -0.130884
2.052587 0.427133 -0.125945
1.936535 0.316361 -0.157312
1.880551 -0.248188 -0.018969
1.816303 -0.329173 -0.073875
1.695714 0.575734 -0.161607
1.677435 0.723281 -0.128080
1.949294 -0.030914 -0.038996
1.796348 0.197270 -0.054231
1.808870 0.074400 -0.108755
1.802291 0.311575 -0.018291
1.938345 -0.132914 -0.038863
1.128363 -0.135525 -0.000000
2.145486 0.824883 -0.138081
2.099919 0.536887 -0.065043
2.168762 0.248907 -0.109241
1.910892 0.584063 -0.039969
1.975889 -0.114306 -0.000000
2.000599 0.002560 -0.020007
1.905345 -0.012108 -0.019054
1.818130 0.248875 -0.036707
2.053466 0.250209 -0.103519
1.730129 0.588156 -0.146502
1.819285 -0.135262 -0.000000
2.148590 0.882331 -0.162855
1.590160 0.095240 -0.111693
1.948365 0.474481 -0.100349
1.844243 -0.178504 -0.037062
2.001612 0.206992 -0.100698
1.741502 -0.080665 -0.104728
2.089713 0.125968 -0.083785
1.915950 -0.100652 -0.038377
1.854485 0.193254 -0.093304
2.070733 0.496192 -0.085220
1.938902 0.595044 -0.101492
2.070382 0.868011 -0.157406
2.054989 0.027262 -0.041109
1.831161 -0.255000 -0.055482
2.161121 0.138915 -0.064987
1.787506 0.133797 -0.071739
1.919990 -0.207143 -0.077287
1.972985 0.077462 -0.079022
1.774745 -0.292825 -0.024317
1.914197 0.295075 -0.135798
2.099674 0.901555 -0.137267
2.164721 0.724765 -0.160059
1.535084 -0.004437 -0.046067
1.849085 -0.031348 -0.074014
2.103236 0.757232 -0.224288
1.770587 0.036436 -0.106385
1.414013 -0.742261 0.063914
2.131197 0.594937 -0.155141
1.735203 0.797870 -0.133908
1.776754 -0.366694 -0.041206
1.870674 0.253774 -0.113405
1.635599 0.526215 -0.120468
1.743283 -0.018034 -0.122236
1.709679 0.667763 -0.110260
2.147524 0.214486 -0.086374
2.133032 0.750134 -0.158535
1.226195 -0.249186 0.012513
1.500071 0.542471 -0.063840
1.497904 -0.000571 -0.074958
1.562643 0.176745 -0.031456
1.718476 -0.449365 -0.017763
2.204060 0.679166 -0.161707
2.192228 0.278489 -0.110584
1.772993 0.831247 -0.176714
1.656676 -0.531828 0.017400
1.804714 -0.395159 -0.036954
2.207301 0.177343 -0.088624
2.227001 0.600411 -0.208149
1.766776 0.569429 -0.130152
2.073259 0.079984 -0.041502
2.105514 0.447698 -0.129310
2.150353 0.665173 -0.180456
1.549487 -0.293361 -0.000000
1.524361 0.522249 -0.080634
1.846812 -0.294259 -0.093583
1.931179 0.049681 -0.038642
1.985907 0.547699 -0.103088
2.193882 0.750603 -0.162577
2.135996 0.442226 -0.152940
1.391432 -0.041901 -0.041774
2.033859 0.209809 -0.081830
1.586139 0.664773 -0.172557
2.110938 0.815979 -0.181440
1.736536 -0.375276 -0.106725
1.980276 0.468870 -0.163150
1.625891 0.686948 -0.159285
1.740658 0.062643 -0.087162
1.956863 -0.162457 -0.019637
2.220110 0.299559 -0.179602
1.801424 -0.070739 -0.108299
1.684170 0.009948 -0.084280
1.019095 -0.219952 0.031286
1.428131 0.000834 -0.000000
1.517210 -0.115814 -0.008688
1.895212 -0.289401 -0.057533
2.113904 0.370422 -0.193673
2.009886 -0.068864 -0.040227
2.166095 0.572848 -0.224806
1.787796 0.473828 -0.092553
1.689072 -0.516087 -0.035328
2.068340 0.665740 -0.152348
1.410603 -0.090883 -0.056571
2.227839 0.247087 -0.112168
1.605891 -0.510798 -0.050570
1.853847 0.127276 -0.074368
1.592462 0.193274 -0.048139
2.062262 0.152311 -0.082759
1.986312 0.302720 -0.161084
2.324466 0.360005 -0.141300
2.174301 0.364196 -0.132434
1.373771 -0.149466 0.041469
1.174617 -0.096889 -0.011786
1.148836 -0.174364 -0.011620
1.722138 0.237112 -0.069572
1.245885 -0.355127 0.025914
2.086087 0.407458 -0.170404
1.788310 0.742660 -0.174747
2.155919 0.529238 -0.200335
1.906027 0.106976 -0.076402
2.118878 0.159390 -0.063765
1.579143 0.032576 -0.031594
1.554966 0.243655 -0.031483
1.527782 0.151052 -0.061442
1.791105 -0.269939 -0.036231
1.961290 0.761484 -0.063137
1.608981 -0.270365 0.016316
1.414266 0.517546 -0.105592
1.780032 0.689219 -0.191519
1.354959 -0.351366 -0.027999
1.247407 -0.412859 0.013140
1.649862 0.051038 -0.082601
1.462798 0.493793 -0.092745
1.030499 -0.315359 0.043130
1.693563 0.325021 -0.034494
1.624390 -0.405420 -0.016743
1.473741 -0.020784 -0.044230
1.955904 0.531863 -0.081120
1.506385 -0.114178 -0.045335
1.195778 -0.054173 -0.023943
1.386077 0.219292 -0.000000
1.739160 0.744622 -0.151673
1.996808 0.647332 -0.126098
1.089192 -0.177564 -0.000000
1.971857 0.829119 0.021391
1.523829 0.708953 -0.100962
1.171882 -0.192566 -0.011876
1.358852 0.285589 0.069485
2.300787 0.333219 -0.163002
2.016009 0.676761 -0.127747
1.509239 0.590491 -0.064860
1.287676 -0.285644 -0.013190
1.567895 -0.688255 -0.357338
1.937000 -0.453521 -0.263211
1.950522 0.450069 -0.026097
2.113182 0.631226 0.116716
1.595788 0.787113 -0.550417
1.731455 0.578464 -0.015630
1.690794 0.558442 -0.013132
1.736044 0.401083 0.130966
1.860447 0.651276 0.058337
1.569245 0.325340 0.156047
1.763644 0.685197 -0.113224
2.008655 0.491095 -0.061000
1.420186 0.636216 0.232576
1.543567 0.570911 -0.040362
1.420069 0.593032 0.090443
1.538796 0.631096 -0.002824
2.175072 0.374420 -0.367100
1.042976 0.560240 1.659512
1.195073 0.614394 1.669278
1.335275 0.496435 1.180674
1.483601 0.603052 1.166711
1.433845 0.536817 0.974107
1.320112 0.528732 0.893963
1.281142 0.501388 0.976369
1.255204 0.461817 0.912718
1.363591 0.647510 1.595197
1.884592 0.240931 0.073966
1.350027 0.387353 0.806616
1.312141 0.397929 0.917733
1.378378 0.516343 1.055140
1.249791 0.489261 1.134501
1.955805 0.317058 0.003504
1.744675 0.457411 0.171724
1.968398 0.711757 0.334100
1.661202 0.580209 -0.040351
1.577649 0.429260 -0.225933
1.552136 0.409047 -0.214526
