ply
format ascii 1.0
element vertex 217
property float x
property float y
property float z
end_header
1.8847668662147488 -0.04792971368437353 -0.014307613132228442
1.8390175383171388 0.3107762246678016 -0.046492871708179985
2.0317267512309454 0.004184678118014285 -0.006364381692690499
1.9015175619985254 0.36814437968478403 -0.09586726271273852
1.3195090436462906 -0.34480822734665434 0.01284899595370273
1.9230701284476184 0.41254952051538585 -0.08054054007173142
1.8720457480717718 -0.1805183213919334 -0.02900713425265894
1.833981608908406 0.16953485718874922 -0.05796107488083823
1.7289530748782205 -0.482029846567586 -0.008552899037624523
1.8362543097524613 -0.3480206860232059 -0.009622406066682913
1.6554480104369682 0.21895136378441346 -0.06746958034304436
1.970894894601925 0.6285937902902874 -0.1095566216848049
1.8965420513966695 0.31265218019899915 -0.06849885461081724
2.109738261581479 0.04542850107245541 -0.06441587223124731
1.2744441867176097 -0.3721279308807403 0.03320002080243564
1.907315667645457 0.5229887175596176 -0.008317319987892514
1.8600654692081533 0.0327169861912491 -0.04620110494062548
1.7747688927641128 -0.418535010299695 -0.03687725273583337
1.9846714878070588 0.3924851613331166 -0.12069849837782823
2.0370303213506142 -0.05165280060967301 -0.024205426090915697
1.7416149336702014 -0.4106331005630412 -0.02485324505781126
2.0876828194750687 0.3101024896126357 -0.11887784341015399
2.1158536599591873 0.2974010160555003 -0.14522445575283266
1.8591846289805265 0.34454745194694814 -0.07146900418955633
1.5862238044932986 -0.6640982901627704 0.011542382213399472
1.7501415110194924 0.6387833167361189 -0.11052952183471795
2.05313608646955 0.4232953433299614 -0.08224457230059234
1.938400141578903 0.31162040525292456 -0.11561468324830257
1.8766803989996514 -0.24833523264028923 0.0022020040138556332
1.8094876784758793 -0.32083357017276143 -0.007725110694512427
1.6907212406250665 0.5775791803602719 -0.12084622396310829
1.6698663875506479 0.7329321495739245 -0.10300711319722133
1.9488117124068522 -0.03451186522729907 -0.031050140872502796
1.7973379140852628 0.19486767438707106 -0.04642760468130169
1.8137641516245417 0.07439164653034888 -0.03640896281563921
1.8110687928655802 0.30646621313251 -0.03028922072162077
1.9378119582643505 -0.13343479024383906 -0.028427443768262783
1.1293075660035155 -0.13143685909902866 0.014255439640807221
2.1431240461017054 0.8342578758166052 -0.1117206108159754
2.1071104951237647 0.5236526218646932 -0.08143005208953702
2.1722526608963273 0.2442306052192153 -0.07583914620571464
1.9132209442585961 0.5765747366912929 -0.06103077937880608
1.9781564208565259 -0.12049806079507087 -0.024382157868779286
2.0031922923033543 -0.0037138437759571432 -0.01692475135048732
1.9057140646338087 -0.018616307227366343 -0.01236221013614136
1.8207717745322283 0.2410231228027442 -0.04679353042349765
2.0563686913064148 0.247347671815758 -0.05554842944742977
1.7224037762541315 0.5881353404066564 -0.11408226671818666
1.8248722267428934 -0.13959986200334595 -0.0003993091943739202
2.1469562841436023 0.8881724474945258 -0.14537787292977478
1.5919087738723718 0.09661052913751086 -0.05378322176661254
1.9530826900663405 0.4689207103442338 -0.08063861211104828
1.8399972382842669 -0.17775133181400704 -0.02443185778079715
2.003356084298215 0.2009887666128182 -0.05524956448704388
1.752189049636838 -0.08553027820754408 -0.013637567131087547
2.092899803136179 0.11895082190950779 -0.05819735652742963
1.9175802199145142 -0.10136897109466834 -0.013432501580368905
1.8624626201657475 0.18710945954302216 -0.07236138610583298
2.0749849657439743 0.4893545822265854 -0.06625155791428194
1.9372116639094343 0.5918729092065453 -0.1031992389734997
2.061278992022473 0.8833660769838336 -0.11918500365980256
2.061189575459203 0.02065448443793892 -0.02768020334091137
1.8242138743071104 -0.2490383547064362 0.0003450569906444656
2.164616797474475 0.13175432047223656 -0.05294253509605662
1.7888526114828076 0.13013556802800413 -0.03563344574123728
1.920981759761827 -0.20079135807717455 -0.03002131568471733
1.9726912829898553 0.07317846273483432 -0.04975455405580087
1.7747447582319238 -0.29282540070489443 -0.024316814329176095
1.9216155007873992 0.2863015610393535 -0.10440476011470068
2.092683548933497 0.9191077181102909 -0.10386816774689311
2.1651539218823985 0.7301440907695417 -0.12239072147618346
1.5415326427832405 0.003237238051301275 0.005153964780756581
1.8512475115614688 -0.03278778753143402 -0.03733020108192697
2.099077125237878 0.7758290482190144 -0.1417525555165986
1.7750284568317913 0.0312859061660312 -0.046547046398198955
1.4168851722357727 -0.7510255244916529 0.08618959490133482
2.1306995010103718 0.6032131803712927 -0.09323137903615697
1.7249775587920326 0.8107231548324477 -0.11983722147658749
1.7767536214240285 -0.3666941494879906 -0.04120649798918441
1.8730276741841405 0.24799355302355908 -0.08631205961925303
1.6403768459994004 0.5242329150049275 -0.09773553953722669
1.749721939146793 -0.02370131053024383 -0.05070639531265231
1.7027261971880479 0.6621566079837716 -0.11367579081463342
2.1510370026965866 0.20769384556089726 -0.06429954360033974
2.1325648806445017 0.7591824600444516 -0.11464153224793971
1.2314621621915396 -0.24867493306457858 0.024535620713449502
1.5032706409319507 0.5355637813011205 -0.09382357075843029
1.501473959311225 0.008668273822393265 -0.014226134934067991
1.5570122790498584 0.1747336601847168 -0.006459222560327049
1.7183145753765565 -0.44946424766188126 -0.017855464294594947
2.2038916977447274 0.6829429909243259 -0.11721009541583993
2.1936910405688597 0.27279470415994433 -0.09720657276376965
1.7639813998841751 0.8478002033370905 -0.15936016962794952
1.671062208456129 -0.49557794380303205 -0.02472088856480692
1.7983655511693863 -0.39345362389240346 -0.009863050370421123
2.2055414439594685 0.16855701263922704 -0.07251561846483234
2.2316361629004464 0.6028723985469806 -0.15775105502453202
1.7596328605778573 0.5686395468386894 -0.10496944943630382
2.077714486820983 0.0696130738147943 -0.029531170721234457
2.114432959181551 0.43650047619062815 -0.10822156940844962
2.1531392465151225 0.6768697489227485 -0.1064493628945975
1.5557621455483401 -0.28816985719932564 0.0182229266936369
1.532258557808681 0.5172499229533023 -0.09858376569790439
1.8468442715601598 -0.2746469332971094 -0.011545645745724364
1.9339983051039644 0.04139041919386658 -0.041485320612168586
1.9891548891329045 0.5372222841291062 -0.13008192765824833
2.195581969299273 0.7506459005405366 -0.13587942269213893
2.147472147771924 0.43442383709669957 -0.11865056993231837
1.3929677047789484 -0.04100807746707761 0.009332282228881272
2.0359650981119533 0.20432626457659975 -0.040687151215223816
1.57690428620146 0.6757893348485287 -0.15199234122806948
2.10838554147523 0.8313056995490816 -0.12922386670334673
1.7329071958656455 -0.37234188454223444 -0.0595804489490388
1.9900389228218895 0.4607103363304522 -0.12417949187654198
1.6161081465776277 0.7007507322652513 -0.11772212942387683
1.7453671469166725 0.058361315037110055 -0.047157780110943515
1.9570956705665465 -0.1657684695558768 -0.04609746198412812
2.221228807349294 0.31196993842375687 -0.10292193935750538
1.8161421333381678 -0.08170274421753858 -0.06746586429841561
1.6821611092937767 0.009574367234755443 -0.006792253241476809
1.0203622004245245 -0.21457259035526283 0.049290555427291216
1.4366642184082656 0.003006756388613697 0.023120303315339763
1.517210080578269 -0.11581363203665616 -0.008687890561696499
1.8886746975218287 -0.28866609556148337 -0.026905013612982254
2.1311721083188786 0.36104208816832484 -0.13193279121665724
2.008951502089909 -0.07478182087512278 -0.03155222336813268
2.17107011226845 0.58626308674034 -0.12507622716139633
1.7860723043546989 0.4744378303656994 -0.02890338896702538
1.6918641523347662 -0.5168527850198208 -0.023126283985012597
2.066571324646643 0.6587252363619074 -0.13909892294419746
1.412160106877911 -0.09143201801112527 -0.01262590126496943
2.2237962536874267 0.2407041781456486 -0.09005158735339958
1.6117757266202586 -0.49968488869928873 0.002348384837197237
1.8614420827398628 0.12068540480554349 -0.05277710270406355
1.5879016218217479 0.19079237428730567 -0.012207282537543884
2.0624881501998127 0.15000304838605452 -0.038332576221769665
1.9904511744671558 0.29556390576124586 -0.09023551766763949
2.327841101685877 0.35558117935665257 -0.09774790263034272
2.181304680199445 0.3509702742227316 -0.11526011213031007
1.3844120607235277 -0.15538481960342462 0.04050195799685774
1.1764886005063435 -0.09485302613358668 0.006410731932511959
1.1531301243904872 -0.17132275707836403 0.01675837587286
1.7326918980431918 0.229728396688106 -0.09630631659277489
1.243329047067744 -0.3521136255614642 0.04141688560324863
2.0983604197835026 0.3984449684134692 -0.13482334451512745
1.7773225954356981 0.752300243565665 -0.14773024428602322
2.161900034709997 0.5371682488334134 -0.11415048047958876
1.9064262892997266 0.10075769570540502 -0.04628502059437123
2.1232855660890335 0.15431590538836643 -0.06139557544097318
1.5879063101707156 0.027886657723694416 -0.02530444516879382
1.5572332141886256 0.2504726089556751 0.00593086828053635
1.5258103928838391 0.1591765609602995 -0.018992304626795464
1.78199302711873 -0.2358784746419014 -0.011111231075590311
1.9616265635568777 0.754128890455027 -0.10124846395144527
1.604981315788733 -0.26467147268697355 0.07359563428405025
1.4198499939466631 0.5190558187316423 -0.1073252975027098
1.7780648091267115 0.7009291113861477 -0.1417446693957879
1.3594522224516257 -0.34915287811164974 -0.027251998145049194
1.242333231885442 -0.40753358362504344 0.023267401728175652
1.6556069094447143 0.04856486603588621 -0.03937507458752054
1.4623950260034273 0.4927906731679811 -0.07805624480008233
1.033396226388425 -0.311152767326757 0.061754735558919194
1.7008756613034803 0.3154190796405023 -0.09410603644716287
1.628138698689883 -0.3978401810352899 0.02704181177693621
1.4798553943013883 -0.014351649675872833 0.0010412059010838082
1.9567439219923848 0.5288802308743953 -0.06936604488630072
1.491620911105216 -0.09062589814972798 -0.004443731928292394
1.2056181975546179 -0.054023663344411756 -0.0010178320310765265
1.3893175645987672 0.22349451229603684 0.035858172922003106
1.7288354008508833 0.7584132638910143 -0.1254033348711059
1.995228310685222 0.6450663864588531 -0.13002872477295568
1.0917716952164607 -0.1752936801229631 0.024352940116938893
1.9791274660323825 0.8201374627367998 -0.051630098123202295
1.5134225012390117 0.7190806648663668 -0.10897407907403034
1.1794052531826218 -0.19429295752253115 0.005933221722054016
1.3613549692162206 0.28671867146309754 0.07366097174017827
2.30588721875007 0.33330342272466873 -0.09058644477183342
2.021221630626799 0.6727916618288992 -0.1050515043986513
1.5129445868011262 0.5970039023535686 -0.05403433650208034
1.2930202342164987 -0.2773051723414347 0.004696302034510644
1.5678953010693437 -0.6882550743428674 -0.3573384031049575
1.8053981054923403 -0.5683236131401533 -0.6443695930930392
1.923448554859238 0.5462740091381856 0.2205542135341474
2.042087729522788 0.7405856398469945 0.43895991913786647
1.6904551311112217 0.784915492236381 0.056086106170680355
1.6776408883141833 0.6858833521045695 0.2865937641618774
1.6608851457953104 0.6352878558292685 0.17699233728562716
1.7453404946713327 0.3581648249429096 0.0337724711988667
1.8227167185563093 0.718766317388741 0.24431031436486236
1.5180254579831596 0.39991735935676875 0.3825585154141996
1.7343397990318863 0.7680352798141274 0.09158401668356606
1.992447555049516 0.5512944960934351 0.1208536622885549
1.4534891504594714 0.5574459654998091 0.06560262480953011
1.5169306008310393 0.6368029995178546 0.12113307484315225
1.391343859656536 0.6328817558353999 0.16526884757471638
1.5146505938053731 0.6765440826839517 0.08273185659870747
2.1775841925550665 0.5622121698307326 0.10398527694693477
1.0429764334144458 0.5602396048742897 1.659511540130822
1.1950726258712783 0.6143936307125035 1.6692776263818974
1.3352747481306904 0.4964345341181906 1.1806740232142547
1.4836009367039311 0.6030517849221654 1.1667107087580586
1.4338451872185376 0.5368173836951522 0.9741067927814244
1.3201123705624496 0.5287318056633068 0.89396314833274
1.2811415070119452 0.5013882985174896 0.9763692048923795
1.2552044127490667 0.46181713920821665 0.9127175585635046
1.3635910381156175 0.6475098972340538 1.5951968479436585
1.4499780405295135 0.5861386876699022 1.1548178911228903
1.3500270523990572 0.38735293199897236 0.8066160007258453
1.3121411252756277 0.3979287127097352 0.9177326614237744
1.378378247579608 0.5163425214761241 1.0551398720958396
1.249790501763313 0.4892605348820791 1.1345009736436271
1.5272539712371433 0.6741371271285416 1.1416919999548303
1.4797055114097675 0.6517341717464742 0.8759437079032311
0.9453696843778959 0.9727963037785234 1.742853607707327
1.0237254758565768 0.8933397206503843 1.2413799504836547
1.0019058709300095 0.825043334929686 1.1475831707074473
0.9744814664190026 0.7995223408487222 1.1448326931065886
