ply
format ascii 1.0
element vertex 217
property float x
property float y
property float z
end_header
1.867173 -0.051137 -0.267890
1.820206 0.308868 -0.279486
2.011241 0.000691 -0.288629
1.867747 0.358004 -0.384630
1.312045 -0.343507 -0.147400
1.893056 0.402961 -0.364715
1.856750 -0.180846 -0.259823
1.818954 0.182304 -0.233799
1.715060 -0.475813 -0.226896
1.809255 -0.359453 -0.317270
1.641428 0.229979 -0.216290
1.944512 0.616421 -0.366943
1.870664 0.306918 -0.334177
2.087121 0.053481 -0.307148
1.269866 -0.374434 -0.130580
1.898270 0.508199 -0.265333
1.836595 0.032656 -0.297689
1.751046 -0.419636 -0.297853
1.948679 0.397415 -0.373893
2.013197 -0.054852 -0.310475
1.720267 -0.411587 -0.272057
2.042713 0.304702 -0.442606
2.065868 0.298362 -0.459867
1.833499 0.336135 -0.339481
1.580385 -0.653636 -0.184382
1.722179 0.615757 -0.376568
2.021363 0.414162 -0.384067
1.902566 0.309201 -0.389364
1.858607 -0.256881 -0.270897
1.785722 -0.332173 -0.318538
1.662832 0.562154 -0.374045
1.649628 0.708382 -0.346989
1.934358 -0.030467 -0.255294
1.782234 0.195863 -0.244394
1.780591 0.068743 -0.328311
1.798276 0.319009 -0.169779
1.922493 -0.131359 -0.258428
1.128985 -0.128790 -0.090149
2.123428 0.821312 -0.344057
2.084365 0.534613 -0.285402
2.143599 0.247818 -0.351140
1.897486 0.573393 -0.262960
1.966792 -0.112607 -0.215528
1.987496 0.000505 -0.245496
1.890305 -0.018486 -0.246850
1.808968 0.251298 -0.212367
2.030196 0.249146 -0.329507
1.696893 0.569694 -0.378060
1.808266 -0.138001 -0.211154
2.121660 0.872809 -0.394685
1.568259 0.096273 -0.280235
1.927400 0.470597 -0.312332
1.825461 -0.181161 -0.261457
1.973388 0.197317 -0.349041
1.708666 -0.088403 -0.333726
2.065361 0.121177 -0.331017
1.897981 -0.103465 -0.266106
1.839654 0.202694 -0.261735
2.048504 0.486068 -0.331032
1.916388 0.585985 -0.326869
2.038945 0.854465 -0.412180
2.034538 0.019122 -0.294803
1.802649 -0.262595 -0.304922
2.142583 0.139274 -0.301656
1.764213 0.123512 -0.294505
1.900611 -0.202383 -0.287961
1.950262 0.073889 -0.309611
1.774745 -0.292825 -0.024317
1.882654 0.286252 -0.369069
2.077477 0.896557 -0.345693
2.139195 0.721888 -0.373433
1.529851 0.006270 -0.163588
1.828756 -0.031042 -0.283283
2.067849 0.754932 -0.444478
1.738504 0.025995 -0.338032
1.419892 -0.731163 -0.090158
2.104634 0.595108 -0.372371
1.706901 0.782811 -0.360244
1.745051 -0.373703 -0.361505
1.845890 0.250302 -0.324043
1.610253 0.514492 -0.318577
1.711380 -0.022765 -0.339021
1.679294 0.641742 -0.364953
2.124750 0.211515 -0.330446
2.107569 0.747411 -0.370510
1.226698 -0.242041 -0.097295
1.486199 0.533984 -0.231908
1.488761 0.010072 -0.196091
1.551930 0.171834 -0.200743
1.702784 -0.445596 -0.230702
2.177888 0.676110 -0.379924
2.168209 0.279509 -0.347407
1.744191 0.823438 -0.375893
1.635227 -0.539119 -0.233431
1.778099 -0.399975 -0.286746
2.181128 0.170980 -0.353730
2.195194 0.599476 -0.429337
1.735783 0.550941 -0.366211
2.053157 0.071127 -0.296448
2.075857 0.438784 -0.381038
2.125857 0.671619 -0.365589
1.543176 -0.288635 -0.163674
1.510906 0.521178 -0.227779
1.826028 -0.284931 -0.297788
1.918065 0.050893 -0.244432
1.964409 0.542930 -0.321107
2.166167 0.742633 -0.396467
2.107768 0.443590 -0.378478
1.379597 -0.042232 -0.188522
2.009390 0.201174 -0.328741
1.553463 0.653422 -0.369703
2.082774 0.813100 -0.393058
1.700256 -0.375339 -0.344153
1.950141 0.466789 -0.379314
1.594284 0.674044 -0.366145
1.721389 0.064117 -0.273399
1.946405 -0.156782 -0.227490
2.192702 0.310157 -0.388549
1.772534 -0.072667 -0.327151
1.654730 -0.002458 -0.309400
1.024655 -0.212983 -0.045350
1.428462 0.008798 -0.109874
1.517210 -0.115814 -0.008688
1.867824 -0.293642 -0.308761
2.076502 0.368375 -0.434414
1.988397 -0.076304 -0.292771
2.132770 0.578347 -0.432718
1.761840 0.455367 -0.330753
1.669627 -0.510551 -0.251564
2.033085 0.647724 -0.424846
1.396767 -0.088859 -0.204652
2.197033 0.237865 -0.387272
1.594128 -0.497387 -0.227728
1.838576 0.131925 -0.259396
1.578062 0.186718 -0.227791
2.037726 0.145816 -0.329942
1.946791 0.289125 -0.420456
2.296250 0.356931 -0.389447
2.143296 0.356847 -0.391803
1.377909 -0.143850 -0.078181
1.172311 -0.091909 -0.112540
1.147276 -0.167029 -0.108134
1.715977 0.254873 -0.187620
1.239619 -0.356325 -0.122282
2.051427 0.402355 -0.412945
1.749517 0.722328 -0.425422
2.124273 0.533619 -0.413784
1.882692 0.100091 -0.306328
2.104192 0.165487 -0.275025
1.573522 0.040421 -0.170246
1.552444 0.253222 -0.135798
1.520604 0.160292 -0.180433
1.740778 -0.304112 -0.364421
1.939188 0.736522 -0.343083
1.595623 -0.278319 -0.193383
1.399498 0.517462 -0.229895
1.744053 0.678276 -0.408803
1.344334 -0.345114 -0.176683
1.238360 -0.412328 -0.139540
1.627810 0.046594 -0.275558
1.447304 0.489302 -0.238910
1.031363 -0.313117 -0.064570
1.692082 0.343456 -0.136125
1.614334 -0.399506 -0.197916
1.468229 -0.011042 -0.164467
1.937270 0.525686 -0.298479
1.494996 -0.110005 -0.198795
1.194369 -0.045368 -0.114070
1.385950 0.224267 -0.096331
1.709329 0.732548 -0.367126
1.968791 0.634820 -0.370874
1.085984 -0.175664 -0.104083
1.963353 0.800906 -0.271809
1.503803 0.699987 -0.281849
1.167985 -0.187567 -0.120739
1.363954 0.288505 0.000603
2.273310 0.334957 -0.389866
1.985137 0.658595 -0.393025
1.498858 0.590198 -0.202537
1.290266 -0.269665 -0.106666
1.567895 -0.688255 -0.357338
1.903928 -0.419462 -0.469270
1.911113 0.379650 -0.422491
2.100619 0.539445 -0.371273
1.669632 0.823558 0.056037
1.706906 0.524071 -0.344662
1.665122 0.500956 -0.345551
1.741371 0.349953 -0.177801
1.846111 0.583306 -0.333550
1.581949 0.267944 -0.135639
1.737511 0.663959 -0.346960
1.973307 0.432674 -0.413702
1.447075 0.616267 0.054817
1.530531 0.547755 -0.248751
1.429170 0.567662 -0.121927
1.530219 0.606687 -0.224476
2.115264 0.388973 -0.590741
1.042976 0.560240 1.659512
1.195073 0.614394 1.669278
1.335275 0.496435 1.180674
1.483601 0.603052 1.166711
1.433845 0.536817 0.974107
1.320112 0.528732 0.893963
1.281142 0.501388 0.976369
1.255204 0.461817 0.912718
1.363591 0.647510 1.595197
1.868751 0.173937 -0.280791
1.350027 0.387353 0.806616
1.312141 0.397929 0.917733
1.378378 0.516343 1.055140
1.249791 0.489261 1.134501
1.929746 0.258752 -0.341629
1.760555 0.395599 -0.159093
2.020543 0.584842 -0.192802
1.649624 0.565192 -0.243480
1.551622 0.462136 -0.318959
1.525599 0.433392 -0.320786
