ply
format ascii 1.0
element vertex 217
property float x
property float y
property float z
end_header
1.866946 -0.051089 -0.270140
1.819755 0.308905 -0.282313
2.010896 0.000625 -0.291322
1.867369 0.357938 -0.387441
1.311871 -0.343674 -0.149965
1.892635 0.402946 -0.367539
1.856646 -0.180740 -0.261679
1.818462 0.182236 -0.236951
1.714950 -0.475972 -0.229074
1.809427 -0.359389 -0.318604
1.640901 0.229867 -0.219628
1.943941 0.616410 -0.370100
1.870277 0.306926 -0.336889
2.086705 0.053340 -0.310136
1.269688 -0.374572 -0.133186
1.897812 0.508647 -0.267220
1.836293 0.032580 -0.300328
1.751177 -0.419654 -0.299374
1.948037 0.396998 -0.377943
2.012913 -0.054933 -0.313018
1.720016 -0.411801 -0.274780
2.042270 0.304403 -0.445887
2.065223 0.297725 -0.464079
1.833147 0.336206 -0.342002
1.580148 -0.653874 -0.187148
1.721596 0.615583 -0.380046
2.020940 0.414164 -0.386849
1.902117 0.308970 -0.392594
1.858571 -0.256796 -0.272619
1.785923 -0.332071 -0.319790
1.662292 0.561975 -0.377434
1.649124 0.708376 -0.349741
1.934049 -0.030452 -0.257783
1.781775 0.195828 -0.247393
1.780117 0.068349 -0.331818
1.797694 0.319130 -0.172826
1.922204 -0.131430 -0.260981
1.128693 -0.128846 -0.092953
2.122699 0.821166 -0.348662
2.083691 0.534573 -0.289003
2.143179 0.247783 -0.353976
1.896904 0.573653 -0.265574
1.966432 -0.112641 -0.218224
1.987160 0.000563 -0.247984
1.889992 -0.018465 -0.249350
1.808496 0.251432 -0.215077
2.029744 0.249063 -0.332524
1.696374 0.569570 -0.381298
1.807878 -0.138169 -0.214143
2.120843 0.872467 -0.399796
1.567857 0.096027 -0.283435
1.926808 0.470509 -0.315742
1.825370 -0.181061 -0.263308
1.972982 0.197178 -0.352020
1.708097 -0.089059 -0.337676
2.064946 0.121032 -0.334014
1.897712 -0.103513 -0.268587
1.839118 0.202501 -0.265206
2.047913 0.486002 -0.334395
1.915848 0.586125 -0.329644
2.038548 0.854778 -0.413856
2.034132 0.018970 -0.297786
1.802745 -0.262491 -0.306385
2.142169 0.139267 -0.304440
1.763794 0.123321 -0.297632
1.900419 -0.202369 -0.289669
1.949896 0.073779 -0.312441
1.774745 -0.292825 -0.024317
1.882189 0.286015 -0.372357
2.076846 0.896628 -0.349059
2.138524 0.721778 -0.377380
1.529426 0.006136 -0.166819
1.828400 -0.031227 -0.286204
2.067440 0.755086 -0.446655
1.738032 0.025535 -0.341593
1.419841 -0.731202 -0.092111
2.104171 0.595267 -0.374834
1.706407 0.782857 -0.362786
1.776754 -0.366694 -0.041206
1.845461 0.250190 -0.327065
1.609583 0.514144 -0.322626
1.710961 -0.023203 -0.342411
1.678754 0.641669 -0.368075
2.124319 0.211469 -0.333334
2.106990 0.747452 -0.373628
1.226399 -0.242197 -0.100213
1.485531 0.533797 -0.235674
1.488389 0.009961 -0.199006
1.551633 0.172096 -0.202813
1.702693 -0.445729 -0.232824
2.177269 0.676039 -0.383624
2.167760 0.279480 -0.350311
1.743523 0.823202 -0.379636
1.635035 -0.539315 -0.235995
1.778205 -0.399957 -0.288257
2.180780 0.170996 -0.356285
2.194476 0.599207 -0.433523
1.735282 0.550882 -0.369291
2.052734 0.071003 -0.299442
2.075206 0.438421 -0.385044
2.125262 0.671600 -0.368875
1.542851 -0.288814 -0.166661
1.510143 0.520830 -0.232216
1.825942 -0.284918 -0.299760
1.917616 0.050776 -0.247525
1.963735 0.542747 -0.324928
2.165411 0.742361 -0.401109
2.107046 0.443112 -0.382887
1.379228 -0.042431 -0.191630
2.008981 0.201103 -0.331623
1.552914 0.653216 -0.372991
2.082211 0.813163 -0.395961
1.700332 -0.375522 -0.346047
1.949374 0.466196 -0.384002
1.593832 0.674024 -0.368800
1.720967 0.063896 -0.276583
1.946074 -0.156852 -0.230149
2.192301 0.310161 -0.391261
1.771680 -0.073643 -0.332184
1.654557 -0.002517 -0.311778
1.024431 -0.212982 -0.047944
1.428036 0.008746 -0.112940
1.517210 -0.115814 -0.008688
1.867875 -0.293586 -0.310338
2.075730 0.367638 -0.439184
1.988152 -0.076314 -0.295119
2.132202 0.578193 -0.436096
1.761322 0.455276 -0.333955
1.669569 -0.510763 -0.253687
2.032497 0.647567 -0.428272
1.396451 -0.089060 -0.207623
2.196708 0.237924 -0.389713
1.593965 -0.497548 -0.230183
1.838061 0.131701 -0.262848
1.577748 0.186884 -0.230093
2.037403 0.145842 -0.332439
1.946343 0.288817 -0.423773
2.295687 0.356823 -0.392953
2.142701 0.356506 -0.395593
1.377484 -0.143970 -0.081356
1.171987 -0.092007 -0.115470
1.146922 -0.167257 -0.111332
1.715285 0.254531 -0.191938
1.239518 -0.356405 -0.124604
2.050748 0.401830 -0.417217
1.748991 0.722195 -0.428549
2.123657 0.533377 -0.417481
1.882311 0.099961 -0.309243
2.103717 0.165451 -0.278045
1.572920 0.040040 -0.174281
1.552054 0.253487 -0.137831
1.520305 0.160505 -0.182488
1.740946 -0.304174 -0.366017
1.938468 0.736415 -0.346830
1.595534 -0.278268 -0.195354
1.398720 0.516964 -0.235263
1.743415 0.677963 -0.412579
1.344175 -0.345317 -0.179246
1.238390 -0.412371 -0.141527
1.627240 0.046094 -0.279499
1.446809 0.489158 -0.242159
1.031298 -0.313060 -0.066038
1.691401 0.343392 -0.139924
1.614256 -0.399456 -0.199143
1.467778 -0.011237 -0.167824
1.936729 0.525846 -0.301236
1.494484 -0.110350 -0.202523
1.193919 -0.045606 -0.117531
1.385599 0.224548 -0.098168
1.708861 0.732605 -0.369638
1.968144 0.634672 -0.374496
1.085786 -0.175716 -0.106701
1.962568 0.800996 -0.275336
1.503302 0.699932 -0.284711
1.167570 -0.187915 -0.124226
1.363607 0.288723 -0.002549
2.272747 0.334823 -0.393408
1.984397 0.658222 -0.397312
1.498222 0.590163 -0.205829
1.289851 -0.269966 -0.110152
1.567895 -0.688255 -0.357338
1.904903 -0.419091 -0.467682
1.910656 0.379308 -0.425939
2.100228 0.539799 -0.373288
1.669632 0.823558 0.056037
1.706409 0.524038 -0.347732
1.664651 0.500906 -0.348607
1.740809 0.350283 -0.180285
1.845665 0.583605 -0.335754
1.580991 0.267294 -0.140811
1.736665 0.663296 -0.351877
1.972869 0.432415 -0.417040
1.446353 0.617416 0.054450
1.529659 0.547222 -0.253501
1.428009 0.566811 -0.128118
1.529195 0.605935 -0.229988
2.115631 0.389373 -0.591975
1.042976 0.560240 1.659512
1.195073 0.614394 1.669278
1.335275 0.496435 1.180674
1.483601 0.603052 1.166711
1.433845 0.536817 0.974107
1.320112 0.528732 0.893963
1.281142 0.501388 0.976369
1.255204 0.461817 0.912718
1.363591 0.647510 1.595197
1.868376 0.173997 -0.283428
1.350027 0.387353 0.806616
1.312141 0.397929 0.917733
1.378378 0.516343 1.055140
1.249791 0.489261 1.134501
1.929278 0.258449 -0.345003
1.759539 0.395000 -0.164407
2.019979 0.590228 -0.185103
1.649020 0.566921 -0.243788
1.551239 0.462663 -0.321272
1.525297 0.433995 -0.322881
